<svg width="16" height="18" viewBox="0 0 16 18" fill="none" xmlns="http://www.w3.org/2000/svg">
<g clip-path="url(#clip0_896_11265)">
<path d="M3.375 1.125V2.25H1.6875C0.755859 2.25 0 3.00586 0 3.9375V5.625H15.75V3.9375C15.75 3.00586 14.9941 2.25 14.0625 2.25H12.375V1.125C12.375 0.502734 11.8723 0 11.25 0C10.6277 0 10.125 0.502734 10.125 1.125V2.25H5.625V1.125C5.625 0.502734 5.12227 0 4.5 0C3.87773 0 3.375 0.502734 3.375 1.125ZM15.75 6.75H0V16.3125C0 17.2441 0.755859 18 1.6875 18H14.0625C14.9941 18 15.75 17.2441 15.75 16.3125V6.75Z" fill="#4B5563"/>
</g>
<defs>
<clipPath id="clip0_896_11265">
<path d="M0 0H15.75V18H0V0Z" fill="white"/>
</clipPath>
</defs>
</svg>
